<svg xmlns="http://www.w3.org/2000/svg" viewBox="0 0 24 24" role="img" aria-labelledby="title desc">
  <title id="title">TikTok</title>
  <desc id="desc">TikTok logo icon</desc>
  <rect width="24" height="24" rx="6" fill="#111111"/>
  <path d="M13.65 5.6c.66 1.52 1.79 2.77 3.27 3.52v2.22c-1.18-.02-2.31-.37-3.27-.97v4.46c0 2.53-2.05 4.57-4.57 4.57-2.53 0-4.57-2.04-4.57-4.57s2.04-4.57 4.57-4.57c.18 0 .36.01.53.04v2.31a2.26 2.26 0 0 0-.53-.07c-1.26 0-2.29 1.03-2.29 2.29s1.03 2.29 2.29 2.29 2.29-1.03 2.29-2.29V5.6h2.28z" fill="#25F4EE"/>
  <path d="M13.95 5.2c.65 1.56 1.78 2.85 3.28 3.62v2.02c-1.24-.05-2.39-.41-3.37-1.01v4.12c0 2.69-2.18 4.87-4.87 4.87-.74 0-1.44-.17-2.07-.46 1.01.7 2.24 1.12 3.57 1.12 3.45 0 6.25-2.8 6.25-6.25V8.47c1.02.68 2.22 1.1 3.52 1.14V7.6c-1.5-.15-2.83-.82-3.8-1.86-.52-.55-.96-1.18-1.28-1.87h-1.23z" fill="#FE2C55" opacity="0.95"/>
</svg>
